<svg width="32" height="32" viewBox="0 0 32 32" fill="none" xmlns="http://www.w3.org/2000/svg">
<path d="M8.00586 6C8.00586 3.79086 9.79672 2 12.0059 2H20.0059C22.2151 2 24.0059 3.79086 24.0059 6H25.0059C26.6627 6 28.0059 7.34314 28.0059 9V11C28.0059 13.502 26.1671 15.5741 23.7685 15.942C22.9793 19.1074 20.3045 21.5268 17.0059 21.938V24H20.0059C22.2151 24 24.0059 25.7908 24.0059 28V29.007C24.0059 29.5592 23.5581 30.007 23.0059 30.007H9.00586C8.45358 30.007 8.00586 29.5592 8.00586 29.007V28C8.00586 25.7908 9.79672 24 12.0059 24H15.0059V21.9382C11.7075 21.5268 9.03268 19.1076 8.24326 15.9422C5.84416 15.5752 4 13.5038 4 11V9C4 7.34314 5.34314 6 7 6H8.00586ZM22.6771 6C22.6771 4.89544 21.115 3.33333 20.0104 3.33333H12.0059C10.9013 3.33333 9.34375 4.89544 9.34375 6V13.8288C9.34375 17.1425 12.6863 20.6667 16 20.6667C19.2672 20.6667 22.6031 17.2494 22.6771 14V6ZM24 14.6667C25.1652 14.2544 26.6667 12.3054 26.6667 11V8.66667C26.6667 8.11439 25.5522 7.33333 25 7.33333H24V14.6667ZM8 7.33333H6.99414C6.44186 7.33333 5.33333 8.11439 5.33333 8.66667V11C5.33333 12.3052 6.83208 14.2548 8 14.6667V7.33333ZM9.33333 28.6667H22.6667C22.6667 27.5621 21.7713 25.3333 20.6667 25.3333H11.3333C10.2288 25.3333 9.33333 27.5621 9.33333 28.6667Z" fill="#1BB0F4"/>
</svg>
