<svg width="33" height="33" viewBox="0 0 33 33" fill="none" xmlns="http://www.w3.org/2000/svg">
<g clip-path="url(#clip0_2333_5080)">
<path d="M25.5629 17.0728C24.5588 16.9266 23.5801 16.6412 22.6549 16.2248C25.5099 13.7143 28.4826 11.3408 31.5629 9.11248L31.7629 8.97247L31.8829 8.75246C32.4383 7.58209 32.5894 6.26043 32.3125 4.99489C32.0356 3.72936 31.3463 2.59159 30.3529 1.76016C29.4337 0.908013 28.2644 0.374696 27.0183 0.23924C25.7722 0.103784 24.5157 0.373398 23.4349 1.00813L23.1829 1.27414C20.1897 5.43089 16.9098 9.37333 13.3669 13.0726C9.59163 16.4326 5.56821 19.5028 1.33086 22.257L0.542865 22.7531V23.2131C0.245285 24.4613 0.216208 25.7584 0.457559 27.0186C0.69891 28.2789 1.20518 29.4735 1.94286 30.5234C2.50977 31.1138 3.19796 31.5742 3.96 31.8729C4.72204 32.1716 5.53979 32.3014 6.35686 32.2535C7.05568 32.2907 7.75201 32.1436 8.3761 31.827C9.00018 31.5103 9.53013 31.0353 9.91286 30.4494C10.4029 29.8334 14.0429 25.2332 17.9229 21.033C18.4589 21.961 18.8749 23.0391 19.1109 24.1831C19.3633 26.2697 19.0889 28.3862 18.3129 30.3394L21.6829 26.2532L24.3429 28.2533C24.2677 25.9855 23.8745 23.7395 23.1749 21.581C22.6838 20.6885 22.0675 19.8709 21.3449 19.1529C22.1569 19.8449 23.0869 20.439 24.0889 20.901C25.9689 21.577 28.0669 22.045 30.2409 22.245L28.3429 19.7129L32.3429 16.2528C30.5482 16.8298 28.674 17.1207 26.7889 17.1148C26.3569 17.1148 25.9289 17.1008 25.5049 17.0708L25.5629 17.0728ZM25.0402 1.76064C25.5641 1.503 26.1818 1.55495 26.7655 1.55738C27.7775 1.55738 28.6975 1.9494 29.3835 2.58943C30.0209 3.09975 30.4797 3.79941 30.6935 4.58743C30.9074 5.37544 30.9854 7.35834 30.6935 8.12091C29.7215 8.73494 25.1069 12.0077 21.5069 15.1879C21.404 14.1853 21.2829 12.3251 20.5269 11.6586C20.1884 11.3682 19.7928 11.152 19.3657 11.0238C18.9385 10.8957 17.7093 10.8916 17.2669 10.9477C19.5974 8.28237 22.9624 4.62733 25.0402 1.76064ZM5.02167 22.754C5.17546 22.6471 5.25355 22.59 5.44087 22.5902L5.62567 22.594H5.76167C7.37355 22.594 8.53288 24.1369 8.78688 24.3749L5.25355 27.2017C5.0377 26.7573 3.84021 25.0816 4.70367 23.1221C4.7596 22.9649 4.87433 22.8323 5.02167 22.754ZM8.79888 29.2938C8.60208 29.6421 7.62002 30.7401 7.26171 30.918C6.9034 31.096 6.49997 31.1623 6.10355 31.1086C5.55948 31.1587 5.01106 31.0879 4.49758 30.9012C3.98411 30.7145 2.81163 29.7098 2.42688 29.3218C1.33086 27.8313 1.72021 25.7883 1.78886 24.5341C1.78886 24.0321 1.84286 23.5441 1.94286 23.0741L3.35486 22.16C3.16686 22.44 3.02686 22.768 2.95686 23.1221C2.84515 24.5124 3.63171 26.691 4.43486 27.8313L5.14286 28.7113L8.54286 25.9112C8.88342 27.0231 10.2002 27.9084 8.78688 29.3218L8.79888 29.2938ZM10.0629 24.3531C9.38099 23.1568 8.28572 22.2507 6.98286 21.805C6.84086 21.781 5.54486 21.7562 5.42486 21.7562C5.30486 21.7562 5.18686 21.7642 5.07086 21.7762C4.83827 21.7499 4.60346 21.7499 4.37086 21.7762C7.14113 19.8915 10.484 17.3696 13.0269 15.1879C13.8229 15.3299 15.1489 16.1888 15.7869 16.7548C16.3809 17.3808 17.9735 18.488 17.9735 19.4281C15.8752 21.6796 12.6427 23.9519 10.7429 26.3732C10.6429 25.6506 10.4002 24.9551 10.0289 24.3271L10.0629 24.3531Z" fill="#1BB0F4"/>
<path d="M14.4402 13.7749C14.4402 13.068 15.3894 11.6543 16.5602 11.6543C17.9735 11.6543 18.6802 11.6553 19.3869 12.361C20.093 13.0661 20.5633 14.9472 20.7992 15.8909L20.8002 15.895L18.6802 18.0151C18.4447 17.3084 14.4402 14.4818 14.4402 13.7749Z" fill="white" stroke="#1BB0F4" stroke-width="0.424009"/>
<path d="M20.0935 20.1348L18.6802 20.8415C18.9158 21.077 19.5282 21.8308 20.0935 22.9616C20.6589 24.0923 20.8002 25.3172 20.8002 25.7883L21.5069 24.3749L22.9202 25.0816C22.9202 24.8461 22.7789 23.9509 22.2135 22.2549C21.6482 20.5588 20.5647 20.1348 20.0935 20.1348Z" fill="white" stroke="#1BB0F4" stroke-width="0.424009"/>
<path d="M21.5069 18.722L22.2135 17.3086C22.4491 17.3086 23.2029 17.4499 24.3335 18.0153C25.4642 18.5806 29.5158 17.5442 29.9869 17.3086L27.1602 19.4287L28.5735 20.8421C27.4429 20.8421 22.4491 19.1931 21.5069 18.722Z" fill="white" stroke="#1BB0F4" stroke-width="0.424009"/>
</g>
<defs>
<clipPath id="clip0_2333_5080">
<rect width="32" height="32.0014" fill="white" transform="translate(0.351562 0.253906)"/>
</clipPath>
</defs>
</svg>
