<svg width="33" height="31" viewBox="0 0 33 31" fill="none" xmlns="http://www.w3.org/2000/svg">
<rect x="6.751" y="1.24002" width="24.4735" height="18.5453" rx="0.972214" stroke="#1BB0F4" stroke-width="1.61285"/>
<path d="M23.0918 20.3017V23.4969H14.9043V20.3016L23.0918 20.3017Z" stroke="#1BB0F4" stroke-width="1.29839"/>
<mask id="path-3-inside-1_2333_5065" fill="white">
<path d="M11.8807 23.5558C11.8807 23.2283 12.1461 22.9629 12.4736 22.9629H25.5167C25.8441 22.9629 26.1096 23.2283 26.1096 23.5558C26.1096 23.8832 25.8441 24.1487 25.5167 24.1487H12.4736C12.1461 24.1487 11.8807 23.8832 11.8807 23.5558Z"/>
</mask>
<path d="M12.4736 24.5757H25.5167V21.35H12.4736V24.5757ZM25.5167 22.5358H12.4736V25.7615H25.5167V22.5358ZM12.4736 22.5358C13.0369 22.5358 13.4935 22.9925 13.4935 23.5558H10.2678C10.2678 24.774 11.2554 25.7615 12.4736 25.7615V22.5358ZM24.4967 23.5558C24.4967 22.9925 24.9534 22.5358 25.5167 22.5358V25.7615C26.7349 25.7615 27.7224 24.774 27.7224 23.5558H24.4967ZM25.5167 24.5757C24.9534 24.5757 24.4967 24.1191 24.4967 23.5558H27.7224C27.7224 22.3376 26.7349 21.35 25.5167 21.35V24.5757ZM12.4736 21.35C11.2554 21.35 10.2678 22.3376 10.2678 23.5558H13.4935C13.4935 24.1191 13.0369 24.5757 12.4736 24.5757V21.35Z" fill="#1BB0F4" mask="url(#path-3-inside-1_2333_5065)"/>
<rect x="17.2791" y="16.5156" width="3.24594" height="1.62302" rx="0.811508" fill="#1BB0F4"/>
<rect x="0.837674" y="11.9119" width="11.4303" height="17.3596" rx="0.972214" fill="white" stroke="#1BB0F4" stroke-width="1.61285"/>
<rect x="5.93375" y="26.252" width="1.62297" height="1.62302" rx="0.811484" fill="#1BB0F4"/>
</svg>
