<svg width="23" height="23" viewBox="0 0 23 23" fill="none" xmlns="http://www.w3.org/2000/svg">
<path d="M17.8776 11.9342C17.1672 11.8308 16.4747 11.6288 15.8201 11.3342C17.8401 9.55797 19.9434 7.87871 22.1229 6.30213L22.2644 6.20308L22.3493 6.04741C22.7423 5.21936 22.8492 4.28426 22.6533 3.38887C22.4573 2.49349 21.9697 1.6885 21.2668 1.10025C20.6164 0.497338 19.7891 0.120007 18.9074 0.0241699C18.0258 -0.0716674 17.1367 0.119089 16.372 0.56817L16.1936 0.756378C14.0759 3.69735 11.7551 6.48669 9.24837 9.10402C6.57721 11.4812 3.73045 13.6534 0.73233 15.6021L0.174783 15.9531V16.2785C-0.0357681 17.1616 -0.0563413 18.0794 0.114426 18.971C0.285193 19.8627 0.643405 20.7079 1.16535 21.4507C1.56646 21.8684 2.05339 22.1942 2.59257 22.4055C3.13175 22.6168 3.71034 22.7087 4.28846 22.6748C4.78291 22.7011 5.27559 22.597 5.71716 22.373C6.15874 22.149 6.5337 21.8129 6.8045 21.3984C7.1512 20.9625 9.72667 17.7078 12.472 14.7361C12.8512 15.3927 13.1455 16.1554 13.3125 16.9649C13.4911 18.4411 13.297 19.9386 12.7479 21.3205L15.1323 18.4295L17.0144 19.8446C16.9612 18.2401 16.683 16.651 16.188 15.1238C15.8405 14.4924 15.4045 13.9139 14.8932 13.4059C15.4677 13.8955 16.1257 14.3158 16.8347 14.6427C18.1649 15.121 19.6493 15.4521 21.1875 15.5936L19.8446 13.8021L22.6748 11.354C21.405 11.7622 20.0789 11.9681 18.7451 11.9639C18.4394 11.9639 18.1366 11.954 17.8366 11.9328L17.8776 11.9342ZM17.5078 1.10059C17.8785 0.918298 18.3155 0.955054 18.7286 0.956778C19.4446 0.956778 20.0955 1.23414 20.5809 1.68697C21.0319 2.04803 21.3565 2.54305 21.5078 3.10059C21.6592 3.65812 21.7143 5.06105 21.5078 5.60059C20.8201 6.03502 17.555 8.35059 15.0078 10.6006C14.935 9.89121 14.8493 8.5751 14.3144 8.10355C14.0749 7.89809 13.795 7.7451 13.4928 7.65443C13.1906 7.56376 12.3208 7.56089 12.0078 7.60059C13.6568 5.71482 16.0376 3.12881 17.5078 1.10059ZM3.34375 15.9538C3.45256 15.8781 3.50781 15.8377 3.64036 15.8379L3.77111 15.8406H3.86733C5.00781 15.8406 5.8281 16.9322 6.00781 17.1006L3.50781 19.1006C3.35509 18.7862 2.50781 17.6006 3.11875 16.2141C3.15832 16.1029 3.2395 16.0091 3.34375 15.9538ZM6.0163 20.5808C5.87706 20.8272 5.18221 21.6041 4.92868 21.7299C4.67516 21.8558 4.38971 21.9028 4.10923 21.8647C3.72428 21.9002 3.33624 21.8501 2.97293 21.718C2.60963 21.5859 1.78004 20.8751 1.50781 20.6006C0.732331 19.546 1.00781 18.1006 1.05639 17.2132C1.05639 16.858 1.09459 16.5127 1.16535 16.1802L2.16441 15.5335C2.03139 15.7316 1.93233 15.9637 1.8828 16.2141C1.80376 17.1978 2.36029 18.7392 2.92856 19.546L3.4295 20.1686L5.83516 18.1875C6.07612 18.9742 7.00781 19.6006 6.00781 20.6006L6.0163 20.5808ZM6.91063 17.0852C6.42817 16.2387 5.65322 15.5976 4.73139 15.2823C4.63091 15.2653 3.71393 15.2477 3.62903 15.2477C3.54412 15.2477 3.46063 15.2534 3.37856 15.2619C3.21399 15.2433 3.04785 15.2433 2.88327 15.2619C4.84337 13.9285 7.20858 12.1442 9.00781 10.6006C9.57102 10.7011 10.5092 11.3087 10.9606 11.7092C11.3809 12.1521 12.5078 12.9355 12.5078 13.6006C11.0232 15.1935 8.73602 16.8013 7.39176 18.5144C7.32104 18.0031 7.14931 17.511 6.88658 17.0668L6.91063 17.0852Z" fill="#1BB0F4"/>
<path d="M10.0078 9.60096C10.0078 9.10082 10.6794 8.10059 11.5078 8.10059C12.5078 8.10059 13.0078 8.10132 13.5078 8.60059C14.0074 9.09949 14.3402 10.4304 14.5071 11.098L14.5078 11.101L13.0078 12.601C12.8411 12.101 10.0078 10.1011 10.0078 9.60096Z" fill="white" stroke="#1BB0F4" stroke-width="0.3"/>
<path d="M14.0078 14.1006L13.0078 14.6006C13.1745 14.7673 13.6078 15.3006 14.0078 16.1006C14.4078 16.9006 14.5078 17.7673 14.5078 18.1006L15.0078 17.1006L16.0078 17.6006C16.0078 17.4339 15.9078 16.8006 15.5078 15.6006C15.1078 14.4006 14.3411 14.1006 14.0078 14.1006Z" fill="white" stroke="#1BB0F4" stroke-width="0.3"/>
<path d="M15.0078 13.1006L15.5078 12.1006C15.6745 12.1006 16.2078 12.2006 17.0078 12.6006C17.8078 13.0006 20.6745 12.2673 21.0078 12.1006L19.0078 13.6006L20.0078 14.6006C19.2078 14.6006 15.6745 13.4339 15.0078 13.1006Z" fill="white" stroke="#1BB0F4" stroke-width="0.3"/>
</svg>
