<svg width="20" height="20" viewBox="0 0 20 20" fill="none" xmlns="http://www.w3.org/2000/svg">
<path d="M14.1699 6.66684C14.1699 7.49096 13.9255 8.29658 13.4677 8.98181C13.0099 9.66704 12.3591 10.2011 11.5978 10.5165C10.8364 10.8319 9.99862 10.9144 9.19037 10.7536C8.38211 10.5928 7.63969 10.196 7.05697 9.61324C6.47425 9.0305 6.07741 8.28804 5.91664 7.47975C5.75587 6.67146 5.83838 5.83365 6.15375 5.07226C6.46911 4.31087 7.00316 3.6601 7.68837 3.20224C8.37357 2.74438 9.17916 2.5 10.0032 2.5C11.1083 2.5 12.1681 2.939 12.9495 3.72044C13.7309 4.50187 14.1699 5.56172 14.1699 6.66684ZM12.5032 10.8337H7.50324C6.39818 10.8337 5.33837 11.2727 4.55697 12.0541C3.77557 12.8355 3.33658 13.8954 3.33658 15.0005V15.0005C3.33658 15.6636 3.59997 16.2995 4.06881 16.7684C4.53765 17.2372 5.17354 17.5006 5.83658 17.5006H14.1699C14.833 17.5006 15.4688 17.2372 15.9377 16.7684C16.4065 16.2995 16.6699 15.6636 16.6699 15.0005C16.6699 13.8954 16.2309 12.8355 15.4495 12.0541C14.6681 11.2727 13.6083 10.8337 12.5032 10.8337Z" stroke="white" stroke-width="1.25003" stroke-linecap="round" stroke-linejoin="round"/>
</svg>
