<svg width="40" height="40" viewBox="0 0 40 40" fill="none" xmlns="http://www.w3.org/2000/svg">
<rect width="40" height="40" rx="20" fill="url(#paint0_linear_271_6982)"/>
<path opacity="0.5" d="M14.6834 10.4321H12.5C11.9477 10.4321 11.5 10.8798 11.5 11.4321V30.0001C11.5 30.5523 11.9477 31.0001 12.5 31.0001H27.5C28.0523 31.0001 28.5 30.5523 28.5 30.0001V27.3357M25.2931 10.4321H27.5C28.0523 10.4321 28.5 10.8798 28.5 11.4321V13.899M14.5444 15.7386H18.488M14.5444 19.0608H15.9784" stroke="white" stroke-width="1.5" stroke-linecap="round" stroke-linejoin="round"/>
<path d="M14.7539 10.4322C14.7539 9.61005 15.4204 8.9436 16.2425 8.9436H23.7575C24.5796 8.9436 25.2461 9.61005 25.2461 10.4322C25.2461 11.2543 24.5796 11.9207 23.7575 11.9207H16.2425C15.4204 11.9207 14.7539 11.2543 14.7539 10.4322Z" stroke="white" stroke-width="1.5" stroke-linecap="round" stroke-linejoin="round"/>
<path d="M25.1777 17.5976C26.0308 16.4382 27.7635 16.4382 28.6166 17.5976C28.9699 18.0778 29.5078 18.3883 30.1002 18.4542C31.5309 18.6133 32.3973 20.1139 31.8197 21.4324C31.5805 21.9784 31.5805 22.5995 31.8197 23.1455C32.3973 24.4641 31.5309 25.9647 30.1002 26.1237C29.5078 26.1896 28.9699 26.5002 28.6166 26.9803C27.7635 28.1398 26.0308 28.1398 25.1777 26.9803C24.8244 26.5002 24.2865 26.1896 23.6941 26.1237C22.2634 25.9647 21.397 24.4641 21.9746 23.1455C22.2138 22.5995 22.2138 21.9784 21.9746 21.4324C21.397 20.1139 22.2634 18.6133 23.6941 18.4542C24.2865 18.3883 24.8244 18.0778 25.1777 17.5976Z" stroke="white" stroke-width="1.5" stroke-linecap="round" stroke-linejoin="round"/>
<circle opacity="0.5" cx="27.042" cy="22.2891" r="1.45801" stroke="white" stroke-width="1.5" stroke-linecap="round" stroke-linejoin="round"/>
<defs>
<linearGradient id="paint0_linear_271_6982" x1="40" y1="-2.38419e-06" x2="2.38419e-06" y2="40" gradientUnits="userSpaceOnUse">
<stop stop-color="#E76CE2"/>
<stop offset="1" stop-color="#FFB58B"/>
</linearGradient>
</defs>
</svg>
