<svg width="212" height="24" viewBox="0 0 212 24" fill="none" xmlns="http://www.w3.org/2000/svg">
<path d="M13.464 19C13.24 19 12.96 18.712 12.624 18.136C12.288 17.544 11.784 16.584 11.112 15.256C10.072 13.08 9.272 11.616 8.712 10.864L6.768 13.096V17.176L8.76 17.416V19H0.84V17.416L2.688 17.152V3.184L0.84 2.848V1.168H8.544V2.848L6.768 3.184V10.648L12.624 3.184L10.68 2.848V1.168H17.52V2.824L15.408 3.16L11.088 8.056C11.664 8.568 12.256 9.304 12.864 10.264C13.488 11.208 14.24 12.456 15.12 14.008C15.712 15.048 16.152 15.808 16.44 16.288C16.744 16.768 16.984 17.056 17.16 17.152L18.312 17.416V19H13.464ZM21.1155 3.184L19.1475 2.848V1.168H27.2355V2.848L25.2195 3.184V17.176L27.2355 17.44V19H19.1715V17.416L21.1155 17.152V3.184ZM30.9073 3.16L29.0353 2.848V1.168H35.0593L41.6833 11.392L43.0273 14.272V3.16L40.9873 2.848V1.168H47.1313V2.848L45.3073 3.16V19H41.7793L34.7473 8.032L33.1633 4.864V17.152L35.7073 17.416V19H29.0353V17.416L30.9073 17.152V3.16ZM50.1718 3.184L48.4198 2.848V1.168H52.1638C52.6918 1.168 53.4038 1.136 54.2998 1.072C54.5078 1.056 54.8198 1.04 55.2358 1.024C55.6678 1.008 56.0518 0.999999 56.3878 0.999999C59.2998 0.999999 61.4918 1.728 62.9638 3.184C64.4358 4.64 65.1718 6.728 65.1718 9.448C65.1718 11.32 64.8118 12.992 64.0918 14.464C63.3718 15.936 62.3398 17.096 60.9958 17.944C59.6518 18.776 58.0678 19.192 56.2438 19.192C55.7478 19.192 55.0038 19.16 54.0118 19.096C53.0838 19.032 52.4838 19 52.2118 19H48.3238V17.416L50.1718 17.152V3.184ZM54.2278 17.224C54.7878 17.4 55.4278 17.472 56.1478 17.44C57.5878 17.424 58.6998 16.816 59.4838 15.616C60.2838 14.4 60.6838 12.544 60.6838 10.048C60.6838 7.744 60.2918 5.944 59.5078 4.648C58.7398 3.336 57.5238 2.68 55.8598 2.68C55.4758 2.68 55.1318 2.704 54.8278 2.752C54.5238 2.8 54.3238 2.832 54.2278 2.848V17.224ZM68.5005 3.184L66.7005 2.848V1.168H74.8845V2.848L72.6045 3.184V17.128L77.1165 16.888L78.6765 12.136L80.9325 12.424L80.2365 19H66.6525V17.416L68.5005 17.176V3.184ZM83.8515 3.184L81.9795 2.848V1.168H95.1075L95.4195 5.416H93.5235L92.6835 2.992L87.9555 2.752V8.992L90.8835 8.92L91.3155 6.952H92.9715V12.976H91.3155L90.9075 10.888L87.9555 10.816V17.344L93.2115 17.008L94.6755 13.912L96.7155 14.488L96.1395 19H82.0035V17.416L83.8515 17.176V3.184ZM105.344 3.184L103.568 2.848V1.168H107.48C107.736 1.168 108.232 1.152 108.968 1.12C109.896 1.056 110.736 1.024 111.488 1.024C113.216 1.024 114.576 1.232 115.568 1.648C116.56 2.064 117.264 2.664 117.68 3.448C118.096 4.216 118.304 5.192 118.304 6.376C118.304 8.424 117.68 10.016 116.432 11.152C115.184 12.288 113.408 12.856 111.104 12.856C110.384 12.856 109.832 12.832 109.448 12.784V17.152L112.616 17.416V19H103.496V17.416L105.344 17.176V3.184ZM109.424 11.128C109.744 11.208 110.272 11.248 111.008 11.248C113.088 11.248 114.128 9.656 114.128 6.472C114.128 5.144 113.864 4.176 113.336 3.568C112.824 2.944 112.048 2.632 111.008 2.632C110.56 2.632 110.208 2.656 109.952 2.704C109.696 2.736 109.52 2.76 109.424 2.776V11.128ZM119.504 17.416L121.352 17.176V3.16L119.6 2.824V1.168H123.296C123.6 1.168 123.928 1.16 124.28 1.144C124.648 1.128 124.928 1.112 125.12 1.096C125.984 1.032 126.72 0.999999 127.328 0.999999C129.04 0.999999 130.4 1.168 131.408 1.504C132.416 1.824 133.144 2.336 133.592 3.04C134.056 3.728 134.288 4.64 134.288 5.776C134.288 6.864 134 7.88 133.424 8.824C132.848 9.768 132 10.416 130.88 10.768C131.616 11.04 132.232 11.552 132.728 12.304C133.24 13.04 133.768 13.984 134.312 15.136C134.632 15.808 134.888 16.312 135.08 16.648C135.272 16.968 135.472 17.152 135.68 17.2L136.376 17.416V19H131.816C131.576 19 131.328 18.744 131.072 18.232C130.816 17.72 130.488 16.92 130.088 15.832C129.592 14.504 129.16 13.48 128.792 12.76C128.44 12.024 128.048 11.576 127.616 11.416H125.456V17.176L127.592 17.416V19H119.504V17.416ZM127.304 9.856C128.136 9.856 128.784 9.536 129.248 8.896C129.712 8.24 129.944 7.256 129.944 5.944C129.944 4.792 129.712 3.952 129.248 3.424C128.8 2.88 128.04 2.608 126.968 2.608C126.392 2.608 125.888 2.648 125.456 2.728V9.784C125.664 9.832 126.008 9.856 126.488 9.856C126.968 9.856 127.24 9.856 127.304 9.856ZM144.81 19.264C142.122 19.264 140.13 18.456 138.834 16.84C137.538 15.208 136.89 12.968 136.89 10.12C136.89 8.28 137.226 6.672 137.898 5.296C138.586 3.904 139.546 2.832 140.778 2.08C142.01 1.328 143.45 0.951999 145.098 0.951999C147.85 0.951999 149.874 1.72 151.17 3.256C152.482 4.776 153.138 6.952 153.138 9.784C153.138 11.656 152.794 13.312 152.106 14.752C151.418 16.176 150.442 17.288 149.178 18.088C147.93 18.872 146.474 19.264 144.81 19.264ZM145.026 2.536C143.874 2.536 142.978 3.168 142.338 4.432C141.714 5.696 141.402 7.584 141.402 10.096C141.402 12.656 141.714 14.56 142.338 15.808C142.962 17.04 143.85 17.656 145.002 17.656C146.138 17.656 147.018 16.984 147.642 15.64C148.282 14.28 148.602 12.336 148.602 9.808C148.602 7.248 148.298 5.4 147.69 4.264C147.082 3.112 146.194 2.536 145.026 2.536ZM153.365 22.264C153.973 22.056 154.549 21.68 155.093 21.136C155.637 20.608 156.045 19.944 156.317 19.144C156.477 18.632 156.597 18.024 156.677 17.32C156.757 16.6 156.797 15.632 156.797 14.416V3.184L154.757 2.848V1.168H162.797V2.848L160.901 3.16V12.4C160.901 14.032 160.877 15.352 160.829 16.36C160.781 17.368 160.685 18.136 160.541 18.664C160.173 19.96 159.453 21.048 158.381 21.928C157.309 22.808 155.941 23.384 154.277 23.656L153.365 22.264ZM166 3.184L164.128 2.848V1.168H177.256L177.568 5.416H175.672L174.832 2.992L170.104 2.752V8.992L173.032 8.92L173.464 6.952H175.12V12.976H173.464L173.056 10.888L170.104 10.816V17.344L175.36 17.008L176.824 13.912L178.864 14.488L178.288 19H164.152V17.416L166 17.176V3.184ZM188.205 19.264C185.437 19.264 183.333 18.464 181.893 16.864C180.453 15.248 179.733 13.04 179.733 10.24C179.733 8.352 180.117 6.712 180.885 5.32C181.653 3.912 182.709 2.84 184.053 2.104C185.397 1.352 186.917 0.975999 188.613 0.975999C189.285 0.975999 189.933 1.016 190.557 1.096C191.181 1.16 191.933 1.256 192.813 1.384C193.501 1.496 193.973 1.56 194.229 1.576L193.941 6.928H191.373L190.557 3.256C190.205 2.872 189.469 2.68 188.349 2.68C187.117 2.68 186.141 3.296 185.421 4.528C184.717 5.744 184.365 7.536 184.365 9.904C184.365 12.208 184.709 14.056 185.397 15.448C186.101 16.84 187.117 17.536 188.445 17.536C189.101 17.536 189.597 17.472 189.933 17.344C190.285 17.216 190.581 17.032 190.821 16.792L191.901 14.224L194.253 14.44L193.821 18.352C193.357 18.384 192.789 18.504 192.117 18.712C191.477 18.888 190.869 19.024 190.293 19.12C189.733 19.216 189.037 19.264 188.205 19.264ZM201.648 2.944L198.648 3.064L197.64 8.416H195.384L195.768 1.168H211.584L211.896 8.416H209.76L208.704 3.064L205.8 2.944V17.152L209.136 17.416V19H198.6V17.416L201.648 17.152V2.944Z" fill="#0F1E3A"/>
</svg>
