<svg width="56" height="56" viewBox="0 0 56 56" fill="none" xmlns="http://www.w3.org/2000/svg">
<g clip-path="url(#clip0_352_185)">
<path fill-rule="evenodd" clip-rule="evenodd" d="M34.8796 22.3716C35.6424 21.9036 36.2277 21.1614 36.5034 20.2774C35.7892 20.7107 35 21.026 34.1569 21.195C33.4849 20.4594 32.5246 20 31.4617 20C29.4237 20 27.7702 21.6956 27.7702 23.7866C27.7702 24.0834 27.8019 24.3716 27.8653 24.649C24.7961 24.4908 22.0755 22.9848 20.253 20.6912C19.935 21.2524 19.7533 21.9036 19.7533 22.597C19.7533 23.9101 20.4052 25.0693 21.3962 25.7486C20.7919 25.7302 20.2213 25.558 19.7227 25.2763V25.3229C19.7227 27.1582 20.9958 28.6891 22.6862 29.0358C22.3767 29.1246 22.0502 29.169 21.7132 29.169C21.4754 29.169 21.243 29.1463 21.018 29.1018C21.4881 30.6056 22.851 31.701 24.4675 31.7302C23.2039 32.7465 21.6107 33.3521 19.8811 33.3521C19.5832 33.3521 19.2884 33.3348 19 33.3001C20.6344 34.3727 22.5763 35 24.6609 35C31.4543 35 35.168 29.2308 35.168 24.2264C35.168 24.0618 35.1648 23.8971 35.1585 23.7356C35.8801 23.2015 36.5066 22.5352 37 21.7757C36.3386 22.0769 35.6265 22.2806 34.8796 22.3716Z" fill="#0F1E3A"/>
</g>
<rect x="0.5" y="0.5" width="55" height="55" rx="27.5" stroke="#C2C7CC"/>
<defs>
<clipPath id="clip0_352_185">
<rect width="18" height="15" fill="white" transform="translate(19 20)"/>
</clipPath>
</defs>
</svg>
