<svg width="80" height="79" viewBox="0 0 80 79" fill="none" xmlns="http://www.w3.org/2000/svg">
<circle cx="40" cy="39.5" r="39.5" fill="white"/>
<path d="M33 35.5L38.0858 40.5858C38.8668 41.3668 40.1332 41.3668 40.9142 40.5858L51.5 30" stroke="#D05FFF" stroke-width="1.5" stroke-linecap="round" stroke-linejoin="round"/>
<path d="M48.3071 29C46.0545 27.1266 43.1588 26 40 26C32.8203 26 27 31.8203 27 39C27 46.1797 32.8203 52 40 52C47.1797 52 53 46.1797 53 39C53 37.0342 52.5637 35.1704 51.7826 33.5" stroke="#D05FFF" stroke-width="1.5" stroke-linecap="round" stroke-linejoin="round"/>
<path d="M45 32.7546C43.6304 31.6567 41.8919 31 40 31C35.5817 31 32 34.5817 32 39C32 43.4183 35.5817 47 40 47C44.4183 47 48 43.4183 48 39C48 38.3094 47.9125 37.6392 47.748 37" stroke="#D05FFF" stroke-width="1.5" stroke-linecap="round" stroke-linejoin="round"/>
</svg>
