<svg width="834" height="631" viewBox="0 0 834 631" fill="none" xmlns="http://www.w3.org/2000/svg">
<mask id="mask0_1266_3564" style="mask-type:alpha" maskUnits="userSpaceOnUse" x="0" y="-1" width="834" height="632">
<path d="M0 -0.0932617H834V528.686L0 630.619L0 -0.0932617Z" fill="url(#paint0_linear_1266_3564)"/>
</mask>
<g mask="url(#mask0_1266_3564)">
<path d="M0 -0.0932617H834V528.686L0 630.619L0 -0.0932617Z" fill="url(#paint1_linear_1266_3564)"/>
<path opacity="0.2" d="M474.917 252.582L981.108 187.557V508.029L474.917 569.807L474.917 252.582Z" fill="#1BB0F4"/>
<path opacity="0.1" d="M-96.7207 239.976L90.3501 215.936V293.872L-96.7207 316.711L-96.7207 239.976Z" fill="#1BB0F4"/>
<path opacity="0.2" d="M-525.883 -168.464L268.154 -270.564V60.4398L-525.883 157.44L-525.883 -168.464Z" fill="#91DCD6"/>
<circle opacity="0.2" cx="417" cy="1035.46" r="743.94" stroke="url(#paint2_linear_1266_3564)" stroke-width="1.7375"/>
</g>
<defs>
<linearGradient id="paint0_linear_1266_3564" x1="123.073" y1="621.642" x2="822.996" y2="55.7963" gradientUnits="userSpaceOnUse">
<stop stop-color="#FFD9C4"/>
<stop offset="0.266354" stop-color="#FFC1C1"/>
<stop offset="1" stop-color="#DEB5FF"/>
</linearGradient>
<linearGradient id="paint1_linear_1266_3564" x1="123.073" y1="621.642" x2="893.944" y2="-0.0931822" gradientUnits="userSpaceOnUse">
<stop stop-color="#E2FDFF"/>
<stop offset="0.452301" stop-color="white"/>
<stop offset="1" stop-color="#B5D7FF"/>
</linearGradient>
<linearGradient id="paint2_linear_1266_3564" x1="91.1466" y1="364.599" x2="675.385" y2="364.599" gradientUnits="userSpaceOnUse">
<stop stop-color="#1BB0F4" stop-opacity="0"/>
<stop offset="0.515093" stop-color="#1BB0F4"/>
<stop offset="1" stop-color="#1BB0F4" stop-opacity="0"/>
</linearGradient>
</defs>
</svg>
