<svg width="5000" height="1306" viewBox="0 0 5000 1306" fill="none" xmlns="http://www.w3.org/2000/svg">
<path d="M0 0H5000V694.985L0 1306L0 0Z" fill="url(#paint0_linear_1267_10671)"/>
<path opacity="0.2" d="M2600 440.274L3474 328V881.333L2600 988L2600 440.274Z" fill="#1BB0F4"/>
<path opacity="0.5" d="M3005 299.147L3317 259V456.859L3005 495L3005 299.147Z" fill="#91DCD6"/>
<path opacity="0.1" d="M1613 414.508L1936 373V507.566L1613 547L1613 414.508Z" fill="#1BB0F4"/>
<path opacity="0.2" d="M872 -290.712L2243 -467V104.517L872 272L872 -290.712Z" fill="#91DCD6"/>
<mask id="mask0_1267_10671" style="mask-type:alpha" maskUnits="userSpaceOnUse" x="0" y="0" width="5000" height="1306">
<path d="M0 0H5000V694.985L0 1306L0 0Z" fill="url(#paint1_linear_1267_10671)"/>
</mask>
<g mask="url(#mask0_1267_10671)">
</g>
<defs>
<linearGradient id="paint0_linear_1267_10671" x1="2288" y1="900.5" x2="3167" y2="242" gradientUnits="userSpaceOnUse">
<stop stop-color="#E2FDFF"/>
<stop offset="0.452301" stop-color="white"/>
<stop offset="1" stop-color="#B5D7FF"/>
</linearGradient>
<linearGradient id="paint1_linear_1267_10671" x1="2288" y1="900.5" x2="3167" y2="242" gradientUnits="userSpaceOnUse">
<stop stop-color="#E2FDFF"/>
<stop offset="0.452301" stop-color="white"/>
<stop offset="1" stop-color="#B5D7FF"/>
</linearGradient>
</defs>
</svg>
