<svg width="140" height="58" viewBox="0 0 140 58" fill="none" xmlns="http://www.w3.org/2000/svg">
<path opacity="0.5" d="M17.5662 19.2522L24.0987 16.083L30.6312 12.9138V44.7485H17.5662V19.2522Z" fill="white"/>
<path opacity="0.5" d="M14.0703 26.969L24.9273 21.9307V42.9083H14.0703V26.969Z" fill="white"/>
<path opacity="0.5" d="M12.4141 32.0515L20.5108 27.8191V41.9883H12.4141V32.0515Z" fill="white"/>
<path d="M39.541 38.5474V26.1492H41.058V27.761C41.4288 27.2155 41.9008 26.7773 42.4739 26.4467C43.0638 26.0996 43.6707 25.926 44.2943 25.926C45.8619 25.926 46.9996 26.5872 47.7077 27.9097C48.7189 26.5872 49.9072 25.926 51.2727 25.926C52.1829 25.926 52.933 26.0665 53.5229 26.3474C54.1298 26.6286 54.5679 27.0336 54.8376 27.5626C55.1242 28.075 55.3095 28.5874 55.3939 29.0998C55.495 29.5959 55.5456 30.1911 55.5456 30.8853V38.5474H54.0286V30.8853C54.0286 30.4223 53.9948 30.0173 53.9275 29.6702C53.8601 29.3065 53.7337 28.9428 53.5481 28.5791C53.3629 28.2155 53.0679 27.9345 52.6633 27.7361C52.2755 27.5377 51.7868 27.4387 51.1969 27.4387C50.59 27.4387 50.0169 27.6617 49.4776 28.1081C48.955 28.5543 48.5504 29.0752 48.264 29.6702C48.3314 30.1663 48.3649 30.5711 48.3649 30.8853V38.5474H46.8226V30.8853C46.8226 30.3892 46.7806 29.9679 46.6962 29.6207C46.3592 28.166 45.4911 27.4387 44.092 27.4387C43.4178 27.4387 42.7941 27.6865 42.221 28.1823C41.6649 28.6619 41.2771 29.2074 41.058 29.8191V38.5474H39.541Z" fill="white"/>
<path d="M58.9343 28.3065C58.8837 28.2072 58.7743 27.9925 58.6055 27.6617C58.4538 27.3145 58.3612 27.0996 58.3276 27.0171C60.1143 26.2897 61.6734 25.926 63.0051 25.926C64.3198 25.926 65.3396 26.2814 66.0644 26.9922C66.806 27.6865 67.1768 28.7115 67.1768 30.0669V38.5474H65.8115C65.7947 38.2994 65.7524 37.9111 65.6851 37.3819C65.3143 37.8614 64.817 38.2334 64.1934 38.4977C63.5697 38.7458 62.9375 38.8697 62.297 38.8697C60.9655 38.8697 59.9458 38.5309 59.2377 37.8532C58.5467 37.1754 58.2012 36.258 58.2012 35.1007C58.2012 33.5302 58.749 32.464 59.8446 31.9019C60.9403 31.3233 62.8786 31.0341 65.6598 31.0341V29.9679C65.6598 29.1412 65.4154 28.5049 64.9265 28.0584C64.4545 27.5957 63.814 27.3642 63.0051 27.3642C61.8924 27.3642 60.5357 27.6782 58.9343 28.3065ZM65.6598 35.6959V32.3235C63.3674 32.3235 61.7998 32.5219 60.957 32.9187C60.1143 33.3155 59.6929 34.0511 59.6929 35.1256C59.6929 35.8198 59.9373 36.3736 60.426 36.7869C60.915 37.2001 61.606 37.4067 62.4993 37.4067C63.1904 37.4067 63.814 37.2497 64.3704 36.9357C64.9435 36.6217 65.3734 36.2083 65.6598 35.6959Z" fill="white"/>
<path d="M72.082 23.5948H70.2615V21.3384H72.082V23.5948ZM68.3146 41.9444L67.9355 40.4814C68.8289 40.2665 69.4608 39.9522 69.8316 39.5391C70.2195 39.1424 70.4133 38.5968 70.4133 37.9026V26.149H71.9303V37.9026C71.9303 39.0102 71.6521 39.878 71.096 40.506C70.5397 41.1343 69.6126 41.6136 68.3146 41.9444Z" fill="white"/>
<path d="M75.1826 28.3065C75.132 28.2072 75.0223 27.9925 74.8538 27.6617C74.7021 27.3145 74.6095 27.0996 74.5757 27.0171C76.3623 26.2897 77.9216 25.926 79.2531 25.926C80.5678 25.926 81.5876 26.2814 82.3124 26.9922C83.0543 27.6865 83.4251 28.7115 83.4251 30.0669V38.5474H82.0596C82.0428 38.2994 82.0007 37.9111 81.9334 37.3819C81.5623 37.8614 81.0651 38.2334 80.4414 38.4977C79.818 38.7458 79.1858 38.8697 78.5453 38.8697C77.2136 38.8697 76.1938 38.5309 75.486 37.8532C74.7947 37.1754 74.4492 36.258 74.4492 35.1007C74.4492 33.5302 74.997 32.464 76.0927 31.9019C77.1883 31.3233 79.1267 31.0341 81.9081 31.0341V29.9679C81.9081 29.1412 81.6635 28.5049 81.1747 28.0584C80.7028 27.5957 80.0623 27.3642 79.2531 27.3642C78.1407 27.3642 76.7837 27.6782 75.1826 28.3065ZM81.9081 35.6959V32.3235C79.6157 32.3235 78.0481 32.5219 77.2051 32.9187C76.3623 33.3155 75.9409 34.0511 75.9409 35.1256C75.9409 35.8198 76.1853 36.3736 76.6743 36.7869C77.163 37.2001 77.854 37.4067 78.7476 37.4067C79.4386 37.4067 80.0623 37.2497 80.6184 36.9357C81.1915 36.6217 81.6214 36.2083 81.9081 35.6959Z" fill="white"/>
<path d="M86.2559 21.1897H87.7982V38.5473H86.2559V21.1897Z" fill="white"/>
<path d="M90.3789 38.5473V36.7869H92.1994V38.5473H90.3789Z" fill="white"/>
<path d="M105.589 32.2987C105.589 36.6299 103.811 38.7955 100.255 38.7955C98.3497 38.7955 96.9677 38.2086 96.1079 37.0348C95.2651 35.8446 94.8438 34.2658 94.8438 32.2987C94.8438 31.406 94.9364 30.5959 95.1219 29.8686C95.3072 29.1246 95.6024 28.4552 96.0067 27.86C96.4113 27.2486 96.9759 26.7773 97.7008 26.4467C98.4256 26.0996 99.2769 25.926 100.255 25.926C103.811 25.926 105.589 28.0502 105.589 32.2987ZM103.946 32.2987C103.946 29.0587 102.715 27.4387 100.255 27.4387C97.7431 27.4387 96.4872 29.0587 96.4872 32.2987C96.4872 35.638 97.7431 37.3076 100.255 37.3076C102.715 37.3076 103.946 35.638 103.946 32.2987Z" fill="white"/>
<path d="M114.779 28.1081C114.24 27.6617 113.591 27.4387 112.832 27.4387C112.091 27.4387 111.433 27.7113 110.86 28.2568C110.304 28.8023 109.95 29.3313 109.798 29.8437V38.5474H108.281V26.1492H109.798V27.6617C110.152 27.1823 110.607 26.7773 111.164 26.4467C111.737 26.0996 112.344 25.926 112.984 25.926C113.962 25.926 114.787 26.1492 115.462 26.5955C115.411 26.6782 115.293 26.9343 115.108 27.3642C114.922 27.7775 114.813 28.0253 114.779 28.1081Z" fill="white"/>
<path d="M119.777 34.4311C119.406 34.7454 119.22 35.0925 119.22 35.4727C119.22 35.8529 119.465 36.1421 119.954 36.3405C120.442 36.5224 121.31 36.6794 122.558 36.8118C126.064 37.1755 127.817 38.2003 127.817 39.8865C127.817 41.0106 127.303 41.8536 126.274 42.4157C125.246 42.9778 123.931 43.2587 122.33 43.2587C118.656 43.2587 116.818 42.1594 116.818 39.9608C116.818 39.3493 117.071 38.8203 117.577 38.3739C118.099 37.9274 118.672 37.6134 119.296 37.4316C118.757 37.2166 118.386 36.9605 118.184 36.6628C117.981 36.3654 117.88 35.9851 117.88 35.5224C117.88 34.9106 118.2 34.3237 118.841 33.7617C117.981 32.8856 117.551 31.7697 117.551 30.4141C117.551 29.1578 117.922 28.0833 118.664 27.1906C119.422 26.298 120.602 25.8516 122.204 25.8516C123.35 25.8516 124.311 26.1244 125.086 26.67L125.592 26.1493H127.741L126.097 27.7362C126.569 28.546 126.805 29.4141 126.805 30.3398C126.805 31.7118 126.434 32.8277 125.693 33.6874C124.951 34.547 123.788 34.9769 122.204 34.9769C121.243 34.9769 120.434 34.795 119.777 34.4311ZM125.213 30.3398C125.213 29.3644 124.951 28.6123 124.429 28.0833C123.906 27.5543 123.165 27.2897 122.204 27.2897C121.142 27.2897 120.366 27.5957 119.878 28.2072C119.406 28.8189 119.17 29.5546 119.17 30.4141C119.17 31.3398 119.414 32.092 119.903 32.6706C120.408 33.2493 121.184 33.5385 122.229 33.5385C123.257 33.5385 124.007 33.2493 124.479 32.6706C124.968 32.0755 125.213 31.2987 125.213 30.3398ZM122.457 38.2003C120.973 38.2003 119.903 38.3821 119.245 38.7458C118.605 39.126 118.285 39.5559 118.285 40.0352C118.285 41.3909 119.625 42.0686 122.305 42.0686C123.502 42.0686 124.454 41.8785 125.162 41.4982C125.887 41.118 126.249 40.6056 126.249 39.9608C126.249 39.4483 125.92 39.027 125.263 38.6962C124.622 38.3656 123.687 38.2003 122.457 38.2003Z" fill="white"/>
</svg>
