<svg width="165" height="68" viewBox="0 0 165 68" fill="none" xmlns="http://www.w3.org/2000/svg">
<path opacity="0.4" d="M21.1224 22.5482L28.9774 18.7375L36.8322 14.9268V53.2061H21.1224V22.5482Z" fill="white"/>
<path opacity="0.5" d="M16.9182 31.8274L29.9731 25.769V50.9934H16.9182V31.8274Z" fill="white"/>
<path opacity="0.6" d="M14.9268 37.9388L24.6626 32.8496V49.8872H14.9268V37.9388Z" fill="white"/>
<path d="M47.5447 45.7497V30.8416H49.3688V32.7796C49.8147 32.1237 50.3822 31.5968 51.0713 31.1993C51.7806 30.7819 52.5104 30.5732 53.2603 30.5732C55.1452 30.5732 56.5133 31.3682 57.3646 32.9585C58.5806 31.3682 60.0094 30.5732 61.6514 30.5732C62.7458 30.5732 63.6477 30.7421 64.357 31.0799C65.0868 31.418 65.6136 31.905 65.9379 32.5411C66.2826 33.1572 66.5054 33.7734 66.6068 34.3895C66.7285 34.9861 66.7893 35.7017 66.7893 36.5365V45.7497H64.9652V36.5365C64.9652 35.9798 64.9245 35.4927 64.8435 35.0753C64.7625 34.638 64.6105 34.2007 64.3874 33.7634C64.1646 33.3261 63.81 32.9883 63.3235 32.7498C62.8572 32.5112 62.2695 32.3921 61.5602 32.3921C60.8304 32.3921 60.1413 32.6602 59.4928 33.197C58.8645 33.7336 58.378 34.36 58.0336 35.0753C58.1146 35.6719 58.1549 36.1586 58.1549 36.5365V45.7497H56.3004V36.5365C56.3004 35.94 56.2498 35.4333 56.1484 35.0159C55.7431 33.2667 54.6994 32.3921 53.0171 32.3921C52.2063 32.3921 51.4564 32.6901 50.7673 33.2863C50.0986 33.863 49.6323 34.5189 49.3688 35.2545V45.7497H47.5447Z" fill="white"/>
<path d="M70.866 33.4356C70.8051 33.3162 70.6736 33.058 70.4707 32.6602C70.2882 32.2428 70.1768 31.9844 70.1365 31.8851C72.2848 31.0105 74.1595 30.5732 75.7608 30.5732C77.3417 30.5732 78.5679 31.0006 79.4395 31.8553C80.3312 32.6901 80.7771 33.9227 80.7771 35.5524V45.7497H79.1354C79.1152 45.4514 79.0644 44.9845 78.9834 44.3482C78.5375 44.9248 77.9396 45.3721 77.1897 45.69C76.4397 45.9882 75.6796 46.1372 74.9095 46.1372C73.3084 46.1372 72.0822 45.7298 71.2308 44.9149C70.3999 44.1 69.9844 42.9968 69.9844 41.6053C69.9844 39.7168 70.6432 38.4347 71.9606 37.7589C73.278 37.0631 75.6088 36.7154 78.953 36.7154V35.4333C78.953 34.4393 78.6591 33.6742 78.0712 33.1373C77.5037 32.5809 76.7336 32.3025 75.7608 32.3025C74.423 32.3025 72.7915 32.6801 70.866 33.4356ZM78.953 42.3209V38.2658C76.1965 38.2658 74.3116 38.5044 73.2982 38.9815C72.2848 39.4586 71.7781 40.3431 71.7781 41.6351C71.7781 42.4699 72.072 43.1358 72.6597 43.6328C73.2476 44.1296 74.0785 44.3781 75.1527 44.3781C75.9836 44.3781 76.7336 44.1893 77.4025 43.8117C78.0916 43.4341 78.6085 42.9371 78.953 42.3209Z" fill="white"/>
<path d="M86.6735 27.7703H84.4845V25.0571H86.6735V27.7703ZM82.1434 49.8346L81.6876 48.0755C82.7618 47.817 83.5217 47.4392 83.9676 46.9424C84.4339 46.4653 84.6669 45.8094 84.6669 44.9746V30.8416H86.491V44.9746C86.491 46.3064 86.1566 47.3499 85.4879 48.1051C84.8189 48.8605 83.7041 49.4369 82.1434 49.8346Z" fill="white"/>
<path d="M90.4018 33.4356C90.341 33.3162 90.2092 33.058 90.0066 32.6602C89.8241 32.2428 89.7127 31.9844 89.6721 31.8851C91.8205 31.0105 93.6954 30.5732 95.2965 30.5732C96.8773 30.5732 98.1035 31.0006 98.9751 31.8553C99.8671 32.6901 100.313 33.9227 100.313 35.5524V45.7497H98.671C98.6509 45.4514 98.6003 44.9845 98.5193 44.3482C98.0731 44.9248 97.4752 45.3721 96.7253 45.69C95.9756 45.9882 95.2155 46.1372 94.4454 46.1372C92.844 46.1372 91.6178 45.7298 90.7667 44.9149C89.9355 44.1 89.5201 42.9968 89.5201 41.6053C89.5201 39.7168 90.1788 38.4347 91.4962 37.7589C92.8136 37.0631 95.1444 36.7154 98.4889 36.7154V35.4333C98.4889 34.4393 98.1948 33.6742 97.6071 33.1373C97.0396 32.5809 96.2695 32.3025 95.2965 32.3025C93.9589 32.3025 92.3271 32.6801 90.4018 33.4356ZM98.4889 42.3209V38.2658C95.7324 38.2658 93.8475 38.5044 92.8338 38.9815C91.8204 39.4586 91.3138 40.3431 91.3138 41.6351C91.3138 42.4699 91.6076 43.1358 92.1956 43.6328C92.7832 44.1296 93.6142 44.3781 94.6886 44.3781C95.5195 44.3781 96.2695 44.1893 96.9381 43.8117C97.6273 43.4341 98.1442 42.9371 98.4889 42.3209Z" fill="white"/>
<path d="M103.717 24.8784H105.572V45.7499H103.717V24.8784Z" fill="white"/>
<path d="M108.676 45.7497V43.6328H110.865V45.7497H108.676Z" fill="white"/>
<path d="M126.965 38.236C126.965 43.444 124.826 46.0479 120.55 46.0479C118.259 46.0479 116.598 45.3422 115.564 43.9308C114.55 42.4998 114.044 40.6013 114.044 38.236C114.044 37.1626 114.155 36.1885 114.378 35.3139C114.601 34.4194 114.956 33.6144 115.442 32.8988C115.929 32.1635 116.608 31.5968 117.479 31.1993C118.351 30.7819 119.374 30.5732 120.55 30.5732C124.826 30.5732 126.965 33.1274 126.965 38.236ZM124.988 38.236C124.988 34.3401 123.509 32.3921 120.55 32.3921C117.53 32.3921 116.02 34.3401 116.02 38.236C116.02 42.2513 117.53 44.2589 120.55 44.2589C123.509 44.2589 124.988 42.2513 124.988 38.236Z" fill="white"/>
<path d="M138.014 33.197C137.365 32.6602 136.585 32.3921 135.673 32.3921C134.781 32.3921 133.991 32.7199 133.302 33.3759C132.633 34.0318 132.207 34.6679 132.025 35.284V45.7497H130.201V30.8416H132.025V32.6602C132.45 32.0839 132.998 31.5968 133.666 31.1993C134.356 30.7819 135.085 30.5732 135.855 30.5732C137.031 30.5732 138.024 30.8416 138.835 31.3782C138.774 31.4777 138.632 31.7856 138.409 32.3025C138.186 32.7996 138.054 33.0975 138.014 33.197Z" fill="white"/>
<path d="M144.023 40.7998C143.577 41.1776 143.354 41.595 143.354 42.0522C143.354 42.5094 143.648 42.8572 144.236 43.0957C144.824 43.3144 145.867 43.5032 147.367 43.6624C151.583 44.0997 153.691 45.332 153.691 47.3596C153.691 48.7113 153.073 49.7249 151.837 50.4008C150.6 51.0766 149.019 51.4144 147.094 51.4144C142.675 51.4144 140.466 50.0926 140.466 47.4488C140.466 46.7136 140.77 46.0775 141.378 45.5407C142.006 45.0039 142.696 44.6263 143.445 44.4076C142.797 44.1492 142.351 43.8413 142.108 43.4833C141.865 43.1256 141.743 42.6684 141.743 42.112C141.743 41.3764 142.128 40.6707 142.898 39.9948C141.865 38.9414 141.348 37.5996 141.348 35.9696C141.348 34.4589 141.794 33.1669 142.686 32.0936C143.597 31.0202 145.016 30.4834 146.942 30.4834C148.32 30.4834 149.475 30.8115 150.408 31.4675L151.016 30.8414H153.6L151.624 32.7495C152.191 33.7233 152.475 34.7671 152.475 35.8803C152.475 37.53 152.029 38.8717 151.137 39.9055C150.245 40.9391 148.847 41.456 146.942 41.456C145.786 41.456 144.813 41.2374 144.023 40.7998ZM150.56 35.8803C150.56 34.7074 150.245 33.803 149.617 33.1669C148.989 32.5309 148.097 32.2127 146.942 32.2127C145.665 32.2127 144.732 32.5806 144.145 33.3159C143.577 34.0515 143.293 34.936 143.293 35.9696C143.293 37.0827 143.587 37.9872 144.175 38.6829C144.783 39.3787 145.715 39.7264 146.972 39.7264C148.208 39.7264 149.11 39.3787 149.678 38.6829C150.266 37.9673 150.56 37.0332 150.56 35.8803ZM147.246 45.332C145.462 45.332 144.175 45.5507 143.385 45.988C142.615 46.4452 142.229 46.9621 142.229 47.5384C142.229 49.1685 143.841 49.9834 147.063 49.9834C148.502 49.9834 149.648 49.7548 150.499 49.2976C151.37 48.8404 151.806 48.2242 151.806 47.4488C151.806 46.8327 151.411 46.326 150.62 45.9282C149.85 45.5307 148.725 45.332 147.246 45.332Z" fill="white"/>
</svg>
