<svg width="50" height="50" viewBox="0 0 50 50" fill="none" xmlns="http://www.w3.org/2000/svg">
<circle cx="25" cy="25" r="25" fill="url(#paint0_linear_271_6751)"/>
<path d="M11 25.0098C11 29.1217 13.8199 32 17.8179 32C21.0433 32 23.4769 30.179 24.2495 27.2028H20.6184C20.0583 28.3776 19.0347 28.965 17.7792 28.965C15.7513 28.965 14.3607 27.4378 14.3607 25.0098C14.3607 22.5818 15.7513 21.0545 17.7792 21.0545C19.0347 21.0545 20.0583 21.642 20.6184 22.8168H24.2495C23.4769 19.8406 21.0433 18 17.8179 18C13.8199 18 11 20.8979 11 25.0098Z" fill="white"/>
<path d="M32.1242 28.5343L28.7635 18.1566H25.2484L30.0576 31.9021H34.1908L39 18.1566H35.5041L32.1242 28.5343Z" fill="white"/>
<defs>
<linearGradient id="paint0_linear_271_6751" x1="35" y1="47" x2="9" y2="6" gradientUnits="userSpaceOnUse">
<stop stop-color="#DB8B16"/>
<stop offset="1" stop-color="#4ED5B9"/>
</linearGradient>
</defs>
</svg>
