<svg width="79" height="79" viewBox="0 0 79 79" fill="none" xmlns="http://www.w3.org/2000/svg">
<circle cx="39.5" cy="39.5" r="39.5" fill="white"/>
<path d="M48.3605 29.2721C45.9335 26.9362 42.6345 25.5 39 25.5C31.5442 25.5 25.5 31.5442 25.5 39C25.5 46.4558 31.5442 52.5 39 52.5C46.4558 52.5 52.5 46.4558 52.5 39C52.5 36.3559 51.7398 33.8893 50.4261 31.8069" stroke="#1BB0F4" stroke-width="1.5" stroke-linecap="round"/>
<path d="M44.8399 32.9072C43.3238 31.4537 41.2662 30.5605 39.0001 30.5605C34.3391 30.5605 30.5605 34.3391 30.5605 39.0001C30.5605 43.6612 34.3391 47.4397 39.0001 47.4397C43.6612 47.4397 47.4397 43.6612 47.4397 39.0001C47.4397 37.6424 47.1191 36.3596 46.5494 35.2232" stroke="#1BB0F4" stroke-width="1.5" stroke-linecap="round"/>
<path d="M42.2085 39C42.2085 40.7727 40.7715 42.2097 38.9988 42.2097C37.2261 42.2097 35.7891 40.7727 35.7891 39C35.7891 37.2273 37.2261 35.7903 38.9988 35.7903C39.8483 35.7903 40.6207 36.1203 41.1949 36.6591" stroke="#1BB0F4" stroke-width="1.5" stroke-linecap="round"/>
<path d="M38.9512 38.7403L51.2012 26.4897" stroke="#1BB0F4" stroke-width="1.5" stroke-linecap="round"/>
</svg>
